# xmcd
#
# Track frame offsets:
#  150
#  16659
#  38594
#  52297
#  75247
#  91170
#  106252
#  123378
#  134983
#  151025
#  171681
#  188337
#  203719
#  223515
#  242884
#  259157
#  275324
#  290357
#  305322
#  318992
#
# Disc length: 4484 seconds
#
# Revision: 3
# Processed by: cddbd v1.4PL0 Copyright (c) Steve Scherf et al.
# Submitted via: AltoMP3_Maker 3.0
#
DISCID=10118214
DTITLE=Elvis Presley - Memphis Sessions
DYEAR=1900
DGENRE=
TTITLE0=After Loving You (Take 3)
TTITLE1=Stranger In My Own Home Town (Undubbed Master)
TTITLE2=In The Ghetto (Take 11)
TTITLE3=Suspicious Minds (Rehearsal Plus Take 6)
TTITLE4=Any Day Now (Take 2)
TTITLE5=Only The Strong Survive (Take 22)
TTITLE6=Wearin' That Love On Look (Takes 3,10)
TTITLE7=Do You Know Who I Am ? (Take 1)
TTITLE8=And The Grass Won't Pay No Mind (Undubbed Master)
TTITLE9=You'll Think Of Me (Take 14)
TTITLE10=Power Of My Love (Take 6)
TTITLE11=This Is The Story (Takes 1,2)
TTITLE12=True Love Travels On A Gravel Road (Takes 6,7)
TTITLE13=Long Black Limousine (Take 6)
TTITLE14=Kentucky Rain (Take 9)
TTITLE15=Without Love (Takes 3,4)
TTITLE16=Hey Jude (Spliced From Takes 5-1)
TTITLE17=If I'm A Fool (Take 3)
TTITLE18=From A Jack To A King (Takes 1,2,3)
TTITLE19=I'm Movin' On (Takes 1,2) (Undubbed Master)
EXTD=
EXTT0=
EXTT1=
EXTT2=
EXTT3=
EXTT4=
EXTT5=
EXTT6=
EXTT7=
EXTT8=
EXTT9=
EXTT10=
EXTT11=
EXTT12=
EXTT13=
EXTT14=
EXTT15=
EXTT16=
EXTT17=
EXTT18=
EXTT19=
PLAYORDER=
